<svg width="22" height="22" viewBox="0 0 22 22" fill="none" xmlns="http://www.w3.org/2000/svg">
<path d="M16.71 15.2901C16.5694 15.1514 16.3908 15.0574 16.1968 15.02C16.0028 14.9826 15.8021 15.0036 15.62 15.0801C15.4374 15.1552 15.2811 15.2826 15.1707 15.4463C15.0604 15.61 15.001 15.8027 15 16.0001V21.0001C15 21.2654 15.1054 21.5197 15.2929 21.7072C15.4804 21.8948 15.7348 22.0001 16 22.0001H21C21.1974 21.9992 21.3901 21.9398 21.5539 21.8294C21.7176 21.7191 21.845 21.5628 21.92 21.3801C21.9966 21.198 22.0175 20.9973 21.9801 20.8033C21.9428 20.6093 21.8488 20.4308 21.71 20.2901L16.71 15.2901ZM17 20.0001V18.4101L18.59 20.0001H17Z" fill="black"/>
<path d="M15.62 6.92C15.7387 6.97598 15.8688 7.00338 16 7C16.1316 7.00076 16.2621 6.97554 16.3839 6.92577C16.5057 6.87601 16.6166 6.80268 16.71 6.71L21.71 1.71C21.8488 1.56938 21.9428 1.3908 21.9801 1.19681C22.0175 1.00282 21.9966 0.802111 21.92 0.62C21.845 0.437381 21.7176 0.281054 21.5539 0.170721C21.3901 0.0603878 21.1974 0.000985482 21 0H16C15.7348 0 15.4804 0.105357 15.2929 0.292893C15.1054 0.48043 15 0.734784 15 1V6C15.001 6.19743 15.0604 6.39014 15.1707 6.55386C15.2811 6.71758 15.4374 6.84498 15.62 6.92Z" fill="black"/>
<path d="M6.38014 15.0801C6.19803 15.0036 5.99732 14.9826 5.80333 15.02C5.60934 15.0574 5.43076 15.1514 5.29014 15.2901L0.290139 20.2901C0.151382 20.4308 0.0573857 20.6093 0.0200115 20.8033C-0.0173626 20.9973 0.00355984 21.198 0.0801393 21.3801C0.155159 21.5628 0.282557 21.7191 0.446277 21.8294C0.609998 21.9398 0.802714 21.9992 1.00014 22.0001H6.00014C6.26536 22.0001 6.51971 21.8948 6.70725 21.7072C6.89478 21.5197 7.00014 21.2654 7.00014 21.0001V16.0001C6.99915 15.8027 6.93975 15.61 6.82942 15.4463C6.71908 15.2826 6.56276 15.1552 6.38014 15.0801Z" fill="black"/>
<path d="M5.29014 6.71C5.38358 6.80268 5.4944 6.87601 5.61623 6.92577C5.73807 6.97554 5.86853 7.00076 6.00014 7C6.13132 7.00338 6.26146 6.97598 6.38014 6.92C6.56276 6.84498 6.71908 6.71758 6.82942 6.55386C6.93975 6.39014 6.99915 6.19743 7.00014 6V1C7.00014 0.734784 6.89478 0.48043 6.70725 0.292893C6.51971 0.105357 6.26536 0 6.00014 0H1.00014C0.802714 0.000985482 0.609998 0.0603878 0.446277 0.170721C0.282557 0.281054 0.155159 0.437381 0.0801393 0.62C0.00355984 0.802111 -0.0173626 1.00282 0.0200115 1.19681C0.0573857 1.3908 0.151382 1.56938 0.290139 1.71L5.29014 6.71ZM5.00014 2V3.59L3.41014 2H5.00014Z" fill="black"/>
<path d="M21 12C21.2652 12 21.5196 11.8946 21.7071 11.7071C21.8946 11.5196 22 11.2652 22 11C22 10.7348 21.8946 10.4804 21.7071 10.2929C21.5196 10.1054 21.2652 10 21 10H15.66L12 6.34V1C12 0.734784 11.8946 0.48043 11.7071 0.292893C11.5196 0.105357 11.2652 0 11 0C10.7348 0 10.4804 0.105357 10.2929 0.292893C10.1054 0.48043 10 0.734784 10 1V6.34L6.34 10H1C0.734784 10 0.48043 10.1054 0.292893 10.2929C0.105357 10.4804 0 10.7348 0 11C0 11.2652 0.105357 11.5196 0.292893 11.7071C0.48043 11.8946 0.734784 12 1 12H6.34L10 15.66V21C10 21.2652 10.1054 21.5196 10.2929 21.7071C10.4804 21.8946 10.7348 22 11 22C11.2652 22 11.5196 21.8946 11.7071 21.7071C11.8946 21.5196 12 21.2652 12 21V15.66L15.66 12H21ZM11 13.83L8.17 11L11 8.17L13.83 11L11 13.83Z" fill="black"/>
</svg>
