<svg width="24" height="24" viewBox="0 0 24 24" fill="none" xmlns="http://www.w3.org/2000/svg">
<path d="M21.0005 12.0005C21.0007 11.8002 20.9407 11.6045 20.8284 11.4387C20.7161 11.2729 20.5566 11.1446 20.3705 11.0705C18.6922 10.397 17.1678 9.39058 15.8891 8.11189C14.6104 6.8332 13.604 5.30874 12.9305 3.63049C12.8568 3.44397 12.7287 3.28392 12.5628 3.17114C12.397 3.05835 12.201 2.99805 12.0005 2.99805C11.7999 2.99805 11.604 3.05835 11.4382 3.17114C11.2723 3.28392 11.1442 3.44397 11.0705 3.63049C10.397 5.30874 9.39058 6.8332 8.11189 8.11189C6.8332 9.39058 5.30874 10.397 3.63049 11.0705C3.44397 11.1442 3.28392 11.2723 3.17114 11.4382C3.05835 11.604 2.99805 11.7999 2.99805 12.0005C2.99805 12.201 3.05835 12.397 3.17114 12.5628C3.28392 12.7287 3.44397 12.8568 3.63049 12.9305C5.30874 13.604 6.8332 14.6104 8.11189 15.8891C9.39058 17.1678 10.397 18.6922 11.0705 20.3705C11.1442 20.557 11.2723 20.7171 11.4382 20.8298C11.604 20.9426 11.7999 21.0029 12.0005 21.0029C12.201 21.0029 12.397 20.9426 12.5628 20.8298C12.7287 20.7171 12.8568 20.557 12.9305 20.3705C13.604 18.6922 14.6104 17.1678 15.8891 15.8891C17.1678 14.6104 18.6922 13.604 20.3705 12.9305C20.5566 12.8564 20.7161 12.7281 20.8284 12.5623C20.9407 12.3965 21.0007 12.2008 21.0005 12.0005ZM12.0005 17.7105C10.6355 15.3358 8.66519 13.3655 6.29049 12.0005C8.66519 10.6355 10.6355 8.66519 12.0005 6.29049C13.3655 8.66519 15.3358 10.6355 17.7105 12.0005C15.3358 13.3655 13.3655 15.3358 12.0005 17.7105Z" fill="black"/>
<path d="M20.5 7C22.433 7 24 5.433 24 3.5C24 1.567 22.433 0 20.5 0C18.567 0 17 1.567 17 3.5C17 5.433 18.567 7 20.5 7Z" fill="black"/>
<path d="M3.5 7C4.19223 7 4.86892 6.79473 5.4445 6.41015C6.02007 6.02556 6.46867 5.47893 6.73358 4.83939C6.99849 4.19985 7.0678 3.49612 6.93275 2.81719C6.7977 2.13825 6.46436 1.51461 5.97487 1.02513C5.48539 0.535644 4.86175 0.202301 4.18282 0.0672531C3.50388 -0.0677952 2.80015 0.00151649 2.16061 0.266423C1.52107 0.53133 0.974441 0.979934 0.589856 1.55551C0.205271 2.13108 0 2.80777 0 3.5C0 4.42826 0.368749 5.3185 1.02513 5.97487C1.6815 6.63125 2.57174 7 3.5 7ZM3.5 2C3.79667 2 4.08668 2.08798 4.33335 2.2528C4.58003 2.41762 4.77229 2.65189 4.88582 2.92598C4.99935 3.20007 5.02906 3.50167 4.97118 3.79264C4.9133 4.08361 4.77044 4.35088 4.56066 4.56066C4.35088 4.77044 4.08361 4.9133 3.79264 4.97118C3.50166 5.02906 3.20006 4.99935 2.92597 4.88582C2.65189 4.77229 2.41762 4.58003 2.2528 4.33336C2.08797 4.08668 2 3.79667 2 3.5C2 3.10218 2.15804 2.72065 2.43934 2.43934C2.72064 2.15804 3.10218 2 3.5 2Z" fill="black"/>
<path d="M3.5 24C5.433 24 7 22.433 7 20.5C7 18.567 5.433 17 3.5 17C1.567 17 0 18.567 0 20.5C0 22.433 1.567 24 3.5 24Z" fill="black"/>
<path d="M20.5 17C19.8078 17 19.1311 17.2053 18.5555 17.5899C17.9799 17.9744 17.5313 18.5211 17.2664 19.1606C17.0015 19.8001 16.9322 20.5039 17.0673 21.1828C17.2023 21.8617 17.5356 22.4854 18.0251 22.9749C18.5146 23.4644 19.1383 23.7977 19.8172 23.9327C20.4961 24.0678 21.1999 23.9985 21.8394 23.7336C22.4789 23.4687 23.0256 23.0201 23.4101 22.4445C23.7947 21.8689 24 21.1922 24 20.5C24 19.5717 23.6313 18.6815 22.9749 18.0251C22.3185 17.3687 21.4283 17 20.5 17ZM20.5 22C20.2033 22 19.9133 21.912 19.6666 21.7472C19.42 21.5824 19.2277 21.3481 19.1142 21.074C19.0007 20.7999 18.9709 20.4983 19.0288 20.2074C19.0867 19.9164 19.2296 19.6491 19.4393 19.4393C19.6491 19.2296 19.9164 19.0867 20.2074 19.0288C20.4983 18.9709 20.7999 19.0007 21.074 19.1142C21.3481 19.2277 21.5824 19.42 21.7472 19.6666C21.912 19.9133 22 20.2033 22 20.5C22 20.8978 21.842 21.2794 21.5607 21.5607C21.2794 21.842 20.8978 22 20.5 22Z" fill="black"/>
</svg>
