<svg width="22" height="22" viewBox="0 0 22 22" fill="none" xmlns="http://www.w3.org/2000/svg">
<g clip-path="url(#clip0_5278_627707)">
<path d="M16 10H12V6C12 4.93913 12.4214 3.92172 13.1716 3.17157C13.9217 2.42143 14.9391 2 16 2H18.59L14.29 6.29C14.1968 6.38324 14.1228 6.49393 14.0723 6.61575C14.0219 6.73757 13.9959 6.86814 13.9959 7C13.9959 7.2663 14.1017 7.5217 14.29 7.71C14.4783 7.8983 14.7337 8.00409 15 8.00409C15.1319 8.00409 15.2624 7.97812 15.3842 7.92766C15.5061 7.8772 15.6168 7.80324 15.71 7.71L21.71 1.71C21.8488 1.56938 21.9428 1.3908 21.9801 1.19681C22.0175 1.00282 21.9966 0.802111 21.92 0.62C21.845 0.437381 21.7176 0.281054 21.5539 0.170721C21.3901 0.0603878 21.1974 0.000985482 21 0H16C14.4087 0 12.8826 0.632141 11.7574 1.75736C10.6321 2.88258 10 4.4087 10 6V10H6C4.93913 10 3.92172 9.57857 3.17157 8.82843C2.42143 8.07828 2 7.06087 2 6V3.41L6.29 7.71C6.4783 7.8983 6.7337 8.00409 7 8.00409C7.2663 8.00409 7.5217 7.8983 7.71 7.71C7.8983 7.5217 8.00409 7.2663 8.00409 7C8.00409 6.7337 7.8983 6.4783 7.71 6.29L1.71 0.29C1.56938 0.151242 1.3908 0.0572463 1.19681 0.0198722C1.00282 -0.0175019 0.802111 0.00342049 0.62 0.0799999C0.437381 0.15502 0.281054 0.282418 0.170721 0.446138C0.0603878 0.609858 0.000985482 0.802575 0 1V6C0 7.5913 0.632141 9.11742 1.75736 10.2426C2.88258 11.3679 4.4087 12 6 12H10V16C10 17.0609 9.57857 18.0783 8.82843 18.8284C8.07828 19.5786 7.06087 20 6 20H3.41L7.71 15.71C7.8983 15.5217 8.00409 15.2663 8.00409 15C8.00409 14.7337 7.8983 14.4783 7.71 14.29C7.5217 14.1017 7.2663 13.9959 7 13.9959C6.7337 13.9959 6.4783 14.1017 6.29 14.29L0.29 20.29C0.151242 20.4306 0.0572463 20.6092 0.0198722 20.8032C-0.0175019 20.9972 0.00342049 21.1979 0.0799999 21.38C0.15502 21.5626 0.282418 21.7189 0.446138 21.8293C0.609858 21.9396 0.802575 21.999 1 22H6C7.5913 22 9.11742 21.3679 10.2426 20.2426C11.3679 19.1174 12 17.5913 12 16V12H16C17.0609 12 18.0783 12.4214 18.8284 13.1716C19.5786 13.9217 20 14.9391 20 16V18.59L15.71 14.29C15.6168 14.1968 15.5061 14.1228 15.3842 14.0723C15.2624 14.0219 15.1319 13.9959 15 13.9959C14.8681 13.9959 14.7376 14.0219 14.6158 14.0723C14.4939 14.1228 14.3832 14.1968 14.29 14.29C14.1968 14.3832 14.1228 14.4939 14.0723 14.6158C14.0219 14.7376 13.9959 14.8681 13.9959 15C13.9959 15.1319 14.0219 15.2624 14.0723 15.3842C14.1228 15.5061 14.1968 15.6168 14.29 15.71L20.29 21.71C20.3834 21.8027 20.4943 21.876 20.6161 21.9258C20.7379 21.9755 20.8684 22.0008 21 22C21.1312 22.0034 21.2613 21.976 21.38 21.92C21.5626 21.845 21.7189 21.7176 21.8293 21.5539C21.9396 21.3901 21.999 21.1974 22 21V16C22 14.4087 21.3679 12.8826 20.2426 11.7574C19.1174 10.6321 17.5913 10 16 10Z" fill="black"/>
</g>
<defs>
<clipPath id="clip0_5278_627707">
<rect width="22" height="22.0003" fill="white"/>
</clipPath>
</defs>
</svg>
